<svg width="367" height="295" viewBox="0 0 367 295" fill="none" xmlns="http://www.w3.org/2000/svg">
<rect width="367" height="295" rx="16" fill="#1E1E26"/>
<g clip-path="url(#clip0_2060_33491)">
<path d="M117.401 117.41C115.609 115.089 113.075 112.942 112.915 110.078C112.768 107.452 114.728 104.844 113.901 102.331C113.266 100.399 111.168 99.2335 109.119 98.6161C105.196 97.4512 100.997 97.6127 97.1751 99.0755L97.3826 98.9294C95.0498 98.0992 92.323 98.9562 90.4877 100.544C88.6521 102.131 87.5614 104.331 86.7151 106.536C85.8685 108.741 85.2127 111.026 84.0368 113.093C82.8605 115.16 81.0599 117.04 78.6841 117.755C79.4794 119.34 81.9658 119.883 83.424 118.791C83.7965 118.489 84.1314 118.143 84.4214 117.761C85.3939 116.58 86.3664 115.398 87.3391 114.217C88.3398 115.995 86.8448 118.449 88.0749 120.095C88.7092 120.944 89.8676 121.266 90.9436 121.498C99.3527 123.29 108.076 122.967 116.329 120.557C116.992 120.362 117.724 120.093 117.999 119.493C118.317 118.801 117.873 118.02 117.401 117.41Z" fill="#2F2E41"/>
<path d="M141.245 126.465C141.193 126.696 141.158 126.93 141.143 127.166L122.763 137.76L118.295 135.19L113.533 141.419L120.999 146.736C121.602 147.165 122.329 147.387 123.069 147.369C123.81 147.351 124.524 147.094 125.106 146.636L144.059 131.698C144.914 132.014 145.845 132.063 146.729 131.837C147.613 131.612 148.407 131.123 149.006 130.436C149.604 129.748 149.979 128.895 150.081 127.99C150.183 127.084 150.006 126.169 149.574 125.367C149.143 124.564 148.477 123.911 147.665 123.496C146.853 123.081 145.934 122.922 145.03 123.042C144.126 123.161 143.279 123.552 142.603 124.164C141.927 124.775 141.453 125.578 141.245 126.465Z" fill="#FFB7B7"/>
<path d="M122.148 138.261L116.208 145.953C116.039 146.172 115.825 146.351 115.58 146.48C115.335 146.609 115.065 146.683 114.789 146.698C114.513 146.713 114.236 146.669 113.979 146.568C113.721 146.466 113.489 146.311 113.297 146.112L106.572 139.135C105.456 138.265 104.731 136.988 104.556 135.585C104.381 134.181 104.77 132.766 105.638 131.648C106.506 130.531 107.782 129.803 109.187 129.625C110.591 129.446 112.009 129.831 113.13 130.696L121.564 135.407C121.806 135.542 122.015 135.728 122.178 135.951C122.342 136.174 122.455 136.43 122.51 136.701C122.566 136.971 122.562 137.251 122.5 137.52C122.437 137.79 122.317 138.042 122.148 138.261Z" fill="#8E92FE"/>
<path d="M113.973 272.278L119.219 272.278L121.714 252.064L113.972 252.065L113.973 272.278Z" fill="#FFB7B7"/>
<path d="M112.635 270.567L122.966 270.566H122.966C124.712 270.567 126.386 271.259 127.621 272.493C128.856 273.726 129.549 275.399 129.549 277.143V277.357L112.636 277.358L112.635 270.567Z" fill="#2F2E41"/>
<path d="M78.0325 272.278L83.2782 272.278L85.7736 252.064L78.0317 252.065L78.0325 272.278Z" fill="#FFB7B7"/>
<path d="M76.6948 270.567L87.0252 270.566H87.0256C88.7715 270.567 90.4459 271.259 91.6805 272.493C92.9151 273.726 93.6087 275.399 93.6089 277.143V277.357L76.6951 277.358L76.6948 270.567Z" fill="#2F2E41"/>
<path d="M110.823 114.552C111.369 109.58 107.778 105.107 102.801 104.561C97.824 104.015 93.3466 107.603 92.8002 112.575C92.2539 117.547 95.8456 122.021 100.822 122.566C105.799 123.112 110.277 119.524 110.823 114.552Z" fill="#FFB7B7"/>
<path d="M107.116 127.141L112.457 129.784C112.457 129.784 118.424 140.144 115.001 149.975C113.339 154.749 118.019 169.964 118.019 169.964C118.019 169.964 125.27 238.886 125.293 260.157C116.285 261.541 107.728 263.25 107.3 258.976C106.872 254.701 102.188 204.161 102.188 204.161C102.188 204.161 95.7473 260.258 90.613 261.113C85.4786 261.968 75.21 260.686 75.21 260.686C75.21 260.686 83.3622 178.513 88.9244 173.384L89.7802 169.11L89.7573 130.74L96.1656 127.685L107.116 127.141Z" fill="#2F2E41"/>
<path d="M88.0109 185.39C88.6019 185.07 89.1156 184.625 89.5158 184.086C89.916 183.547 90.193 182.926 90.3272 182.269C90.4615 181.611 90.4497 180.932 90.2928 180.279C90.1359 179.626 89.8376 179.016 89.419 178.491L95.6302 137.129L87.5155 136.74L82.6737 177.93C81.8373 178.691 81.3093 179.732 81.1899 180.856C81.0705 181.98 81.3679 183.109 82.0258 184.028C82.6836 184.948 83.6563 185.594 84.7594 185.845C85.8625 186.096 87.0194 185.934 88.0109 185.39Z" fill="#FFB7B7"/>
<path d="M95.4538 147.493L85.7489 146.881C85.4727 146.863 85.2036 146.787 84.9598 146.656C84.716 146.525 84.5033 146.343 84.3361 146.123C84.1689 145.903 84.0512 145.649 83.991 145.38C83.9308 145.11 83.9295 144.83 83.9872 144.56L86.0093 135.087C86.1063 133.676 86.7595 132.361 87.8257 131.431C88.8918 130.5 90.2838 130.03 91.6965 130.123C93.1091 130.216 94.4271 130.865 95.3614 131.928C96.2957 132.991 96.77 134.38 96.6804 135.792L97.4937 145.412C97.5169 145.687 97.4804 145.964 97.3867 146.224C97.293 146.485 97.1443 146.721 96.9507 146.919C96.7571 147.116 96.5232 147.27 96.2649 147.369C96.0066 147.468 95.7299 147.51 95.4538 147.493Z" fill="#8E92FE"/>
<path d="M111.313 107.676C110.96 106.075 109.812 104.749 108.49 103.777C106.311 102.176 103.639 101.389 100.939 101.553C98.239 101.717 95.682 102.821 93.7133 104.675C92.6133 105.646 91.8202 106.915 91.4311 108.329C91.2455 109.036 91.2356 109.777 91.4022 110.488C91.5689 111.2 91.9071 111.86 92.3873 112.411L92.5684 112.524C92.4042 111.828 92.9453 111.133 93.5917 110.826C94.264 110.579 94.9658 110.422 95.679 110.358C96.7582 110.154 97.7809 109.722 98.6783 109.089C99.5756 108.456 100.327 107.639 100.88 106.691C101.291 107.857 101.946 108.922 102.803 109.814C103.66 110.706 104.697 111.404 105.847 111.862C107.045 112.33 110.336 112.974 111.476 112.379C112.932 111.621 111.666 109.277 111.313 107.676Z" fill="#2F2E41"/>
<path d="M44.6093 259.792C46.1779 260.343 47.8621 260.481 49.4995 260.193C51.137 259.905 52.6726 259.2 53.9583 258.147C57.2328 255.401 58.2597 250.879 59.0948 246.69L61.5656 234.301L56.3928 237.859C52.6725 240.418 48.8688 243.059 46.2931 246.766C43.7175 250.472 42.5939 255.532 44.6627 259.543" fill="#E6E6E6"/>
<path d="M45.4081 275.653C44.757 270.915 44.0871 266.114 44.5449 261.325C44.9506 257.071 46.2497 252.917 48.8943 249.509C50.2981 247.705 52.0063 246.158 53.942 244.94C54.4466 244.622 54.9112 245.42 54.4087 245.737C51.0593 247.852 48.4686 250.975 47.0102 254.655C45.3994 258.748 45.1408 263.21 45.4182 267.557C45.586 270.186 45.9423 272.798 46.3002 275.407C46.3285 275.525 46.3108 275.65 46.2509 275.755C46.1909 275.861 46.0931 275.939 45.9772 275.976C45.8589 276.007 45.7329 275.991 45.6264 275.931C45.5199 275.87 45.4416 275.771 45.4084 275.653L45.4081 275.653Z" fill="#F2F2F2"/>
<path d="M50.0942 268.05C50.7669 269.072 51.6916 269.903 52.7792 270.464C53.8669 271.025 55.0808 271.297 56.3041 271.253C59.4485 271.104 62.0688 268.912 64.4274 266.831L71.4052 260.676L66.7872 260.455C63.4662 260.296 60.0595 260.147 56.8963 261.172C53.7331 262.196 50.8159 264.657 50.2376 267.928" fill="#E6E6E6"/>
<path d="M43.5677 278.378C46.7022 272.837 50.3377 266.679 56.8342 264.711C58.6404 264.165 60.5343 263.97 62.4139 264.135C63.0064 264.186 62.8585 265.098 62.2672 265.048C59.1164 264.786 55.9717 265.617 53.3624 267.401C50.8516 269.109 48.8965 271.482 47.242 274C46.2284 275.542 45.3205 277.149 44.4126 278.754C44.1225 279.267 43.2742 278.897 43.5677 278.378Z" fill="#F2F2F2"/>
<path d="M255.38 175.942C249.498 168.078 238.733 166.18 233.383 170.174C228.034 174.168 226.805 185.02 232.687 192.883C238.131 200.162 247.995 202.148 253.428 199.42C253.411 199.506 253.41 199.593 253.425 199.679L253.731 201.192C253.755 201.307 253.807 201.415 253.884 201.504C253.96 201.593 254.059 201.662 254.169 201.702C254.28 201.743 254.399 201.755 254.515 201.737C254.631 201.719 254.741 201.671 254.834 201.599L257.428 199.574C257.521 199.502 257.593 199.407 257.639 199.299C257.685 199.19 257.702 199.072 257.689 198.955C257.676 198.838 257.634 198.726 257.566 198.63C257.497 198.534 257.406 198.458 257.299 198.407L255.904 197.744C255.855 197.722 255.803 197.706 255.751 197.696C259.938 193.273 260.836 183.237 255.38 175.942Z" fill="#CCCCCC"/>
<path d="M242.514 172.973C245.391 173.429 247.983 174.972 249.755 177.283C251.527 179.593 252.343 182.495 252.035 185.389C251.971 186.052 253.008 186.048 253.071 185.389C253.368 182.27 252.473 179.154 250.566 176.666C248.659 174.178 245.881 172.502 242.79 171.974C242.137 171.864 241.857 172.861 242.514 172.973Z" fill="white"/>
<path d="M264.967 40.0085C270.11 31.6432 267.899 20.9477 262.208 17.4562C256.518 13.9647 245.969 16.8319 240.827 25.1972C236.067 32.9403 237.864 42.8312 242.407 46.8681C242.321 46.8833 242.239 46.9146 242.166 46.9606L240.871 47.8037C240.773 47.868 240.692 47.9564 240.637 48.0605C240.582 48.1647 240.555 48.2811 240.558 48.3987C240.561 48.5163 240.594 48.6313 240.654 48.7326C240.713 48.834 240.798 48.9184 240.9 48.9778L243.741 50.6382C243.843 50.6976 243.958 50.7301 244.076 50.7325C244.193 50.735 244.31 50.7073 244.414 50.6521C244.518 50.597 244.606 50.5162 244.67 50.4174C244.734 50.3186 244.772 50.2051 244.78 50.0877L244.881 48.5474C244.883 48.4937 244.879 48.4399 244.869 48.3871C250.53 50.6415 260.197 47.7684 264.967 40.0085Z" fill="#CCCCCC"/>
<path d="M262.977 26.9667C263.615 29.8066 263.137 32.7828 261.643 35.281C260.148 37.7791 257.75 39.6086 254.944 40.3917C254.304 40.5779 254.691 41.5389 255.327 41.3539C258.338 40.4771 260.906 38.4954 262.516 35.8061C264.126 33.1169 264.659 29.919 264.008 26.8537C263.87 26.2071 262.838 26.3153 262.977 26.9667Z" fill="white"/>
<path d="M173.834 79.6996C173.404 69.8921 165.576 62.2689 158.904 62.5608C152.232 62.8528 145.102 71.1306 145.532 80.9381C145.93 90.0162 152.964 97.2046 158.991 98.0064C158.928 98.0669 158.878 98.1388 158.842 98.2182L158.243 99.6409C158.197 99.7493 158.18 99.8676 158.193 99.9846C158.206 100.102 158.249 100.213 158.317 100.309C158.385 100.405 158.477 100.482 158.583 100.532C158.69 100.583 158.807 100.605 158.925 100.597L162.209 100.383C162.327 100.375 162.441 100.338 162.54 100.274C162.638 100.21 162.719 100.122 162.775 100.018C162.83 99.9143 162.858 99.798 162.855 99.6803C162.853 99.5627 162.82 99.4476 162.761 99.346L161.981 98.0134C161.953 97.9675 161.92 97.9252 161.882 97.8872C167.835 96.5869 174.233 88.7974 173.834 79.6996Z" fill="#8E92FE"/>
<path d="M164.874 70.0099C166.994 72.0055 168.267 74.7383 168.429 77.6443C168.592 80.5503 167.631 83.4077 165.746 85.6266C165.32 86.1389 166.179 86.7185 166.602 86.2095C168.605 83.7981 169.622 80.7193 169.448 77.5906C169.273 74.4618 167.922 71.5145 165.664 69.3396C165.187 68.8811 164.393 69.548 164.874 70.0099Z" fill="white"/>
<path d="M204.425 144.761C201.853 144.599 199.356 143.831 197.139 142.519C194.922 141.207 193.048 139.389 191.67 137.214C191.284 136.597 190.78 135.919 191.047 135.16C191.14 134.869 191.33 134.618 191.584 134.448C191.838 134.279 192.143 134.2 192.448 134.226C193.236 134.322 193.744 135.092 193.841 135.83C193.951 136.667 193.36 137.324 192.63 137.635C190.847 138.395 189.047 137.221 187.594 136.283C184.284 134.147 180.643 132.215 176.631 131.972C172.92 131.747 168.94 133.2 166.876 136.416C166.514 136.978 167.411 137.498 167.771 136.939C169.818 133.75 173.957 132.604 177.555 133.097C179.7 133.435 181.771 134.138 183.678 135.174C184.667 135.687 185.626 136.255 186.566 136.853C187.461 137.476 188.409 138.019 189.399 138.475C191.051 139.153 193.238 139.1 194.392 137.539C195.468 136.083 194.637 133.659 192.836 133.25C192.441 133.172 192.033 133.193 191.648 133.312C191.264 133.43 190.914 133.642 190.632 133.929C190.349 134.216 190.143 134.568 190.03 134.954C189.917 135.34 189.902 135.748 189.986 136.141C190.166 136.999 190.812 137.838 191.312 138.539C192.815 140.651 194.774 142.4 197.043 143.656C199.312 144.912 201.835 145.644 204.425 145.797C205.091 145.83 205.09 144.794 204.425 144.761Z" fill="#CCCCCC"/>
<path d="M303.961 73.4224C306.799 72.1036 310.283 71.6713 313.17 72.8967C316.057 74.1222 318.026 77.2633 317.092 80.0431C316.669 81.3034 315.705 82.5429 316.08 83.8158C316.369 84.7956 317.378 85.4425 318.368 85.9024C319.359 86.3623 320.442 86.749 321.158 87.5248C321.875 88.3005 322.024 89.6359 321.129 90.2375C320.835 90.4357 320.466 90.5297 320.18 90.7386C319.937 90.9363 319.761 91.2051 319.677 91.5074C319.594 91.8097 319.607 92.1305 319.715 92.4251C319.953 93.0178 320.347 93.5353 320.855 93.9233C321.87 94.7984 323.213 95.8001 322.897 97.0424C322.78 97.3744 322.585 97.6734 322.328 97.9138C322.07 98.1543 321.759 98.3292 321.419 98.4236C320.714 98.6267 319.983 98.7232 319.249 98.7097L289.276 99.6531C288.287 99.7273 287.292 99.6718 286.317 99.4879C285.843 99.4016 285.392 99.2184 284.992 98.9501C284.592 98.6817 284.252 98.3338 283.992 97.9281C283.418 96.8667 283.795 95.5592 284.504 94.568C285.213 93.5769 286.216 92.7951 287.045 91.885C287.874 90.9748 288.552 89.8387 288.406 88.6625C288.289 87.7208 287.668 86.907 287.221 86.0515C286.775 85.1959 286.516 84.1268 287.094 83.3397C287.908 82.2306 289.863 82.3309 290.789 81.2974C291.488 80.5175 291.353 79.3947 291.423 78.3889C291.59 75.9697 293.266 73.6849 295.653 72.6239C296.867 72.1035 298.187 71.8788 299.504 71.9684C300.822 72.0581 302.099 72.4595 303.231 73.1395L303.961 73.4224Z" fill="#2F2E41"/>
<path d="M340.464 193.143V198.041L321.557 200.37L321.557 193.143L340.464 193.143Z" fill="#9E616A"/>
<path d="M345.216 191.895L345.215 207.685H345.015C343.384 207.685 341.819 207.037 340.665 205.885C339.512 204.732 338.863 203.169 338.863 201.539V201.539L338.864 191.895L345.216 191.895Z" fill="#2F2E41"/>
<path d="M317.091 201.473L315.888 206.22L296.987 203.842L298.763 196.836L317.091 201.473Z" fill="#9E616A"/>
<path d="M322.004 201.428L318.124 216.735L317.93 216.686C316.348 216.286 314.99 215.274 314.155 213.874C313.32 212.474 313.076 210.8 313.476 209.219L315.846 199.87L322.004 201.428Z" fill="#2F2E41"/>
<path d="M312.264 146.557L313.285 147.619C313.285 147.619 319.947 152.838 315.018 166.585L306.956 189.788L333.979 190.841L333.4 201.444C333.4 201.444 294.21 203.622 294.553 197.169C294.896 190.717 296.342 166.826 296.342 166.826L288.2 160.293L290.163 149.245L312.264 146.557Z" fill="#2F2E41"/>
<path d="M291.33 157.086L288.2 160.293L277.703 189.118C277.703 189.118 276.104 196.308 279.702 197.906C283.301 199.504 306.455 208.442 306.455 208.442L308.819 199.94L290.979 189.243L299.294 178.333L300.545 161.139L291.33 157.086Z" fill="#2F2E41"/>
<path d="M291.497 106.234L318.14 100.912L318.719 115.515L311.817 130.211L313.285 147.618L289.407 151.786L290.155 128.897C290.155 128.897 283.743 119.859 287.52 110.75L291.497 106.234Z" fill="#E4E4E4"/>
<path d="M350.906 71.5922C351.039 72.2052 351.036 72.84 350.898 73.4519C350.759 74.0637 350.488 74.6378 350.103 75.1336C349.719 75.6294 349.23 76.0349 348.671 76.3216C348.113 76.6082 347.498 76.769 346.871 76.7927L321.322 106.39L315.382 99.1884L342.363 72.3595C342.393 71.3038 342.81 70.2957 343.534 69.5264C344.259 68.7571 345.24 68.2799 346.293 68.1853C347.346 68.0907 348.397 68.3853 349.247 69.0132C350.097 69.6412 350.687 70.5588 350.906 71.5922Z" fill="#9E616A"/>
<path d="M326.885 103.161C326.891 103.437 326.837 103.712 326.727 103.965C326.617 104.219 326.454 104.446 326.248 104.631L319.064 111.092C318.162 112.183 316.865 112.871 315.455 113.007C314.046 113.143 312.64 112.716 311.546 111.818C310.452 110.92 309.759 109.626 309.619 108.218C309.478 106.81 309.902 105.405 310.798 104.309L315.812 96.0169C315.956 95.7803 316.148 95.5772 316.377 95.4216C316.606 95.266 316.865 95.1614 317.138 95.1151C317.411 95.0688 317.691 95.0817 317.958 95.1531C318.225 95.2245 318.474 95.3526 318.687 95.5287L326.186 101.718C326.399 101.894 326.572 102.114 326.693 102.363C326.813 102.612 326.879 102.884 326.885 103.161Z" fill="#E4E4E4"/>
<path d="M249.722 141.149C249.682 140.523 249.78 139.896 250.009 139.312C250.237 138.727 250.592 138.201 251.047 137.768C251.501 137.336 252.046 137.008 252.641 136.808C253.236 136.609 253.868 136.542 254.492 136.612L284.197 111.18L288.988 119.19L258.282 141.671C258.094 142.71 257.531 143.644 256.699 144.297C255.867 144.949 254.825 145.273 253.77 145.209C252.715 145.144 251.72 144.696 250.974 143.947C250.227 143.199 249.782 142.203 249.722 141.149Z" fill="#9E616A"/>
<path d="M278.212 113.539C278.248 113.265 278.342 113.001 278.489 112.767C278.635 112.533 278.831 112.332 279.062 112.18L287.135 106.87C288.191 105.926 289.577 105.44 290.991 105.517C292.405 105.593 293.731 106.227 294.677 107.279C295.624 108.33 296.115 109.714 296.043 111.127C295.97 112.54 295.339 113.866 294.289 114.815L288.086 122.262C287.909 122.474 287.688 122.646 287.439 122.766C287.189 122.885 286.917 122.95 286.64 122.954C286.363 122.959 286.089 122.905 285.835 122.794C285.581 122.683 285.355 122.519 285.17 122.313L278.686 115.07C278.502 114.864 278.364 114.62 278.282 114.356C278.2 114.092 278.176 113.813 278.212 113.539Z" fill="#E4E4E4"/>
<path d="M302.852 99.4203C308.276 99.4203 312.672 95.0279 312.672 89.6095C312.672 84.1912 308.276 79.7988 302.852 79.7988C297.429 79.7988 293.032 84.1912 293.032 89.6095C293.032 95.0279 297.429 99.4203 302.852 99.4203Z" fill="#9E616A"/>
<path d="M312.898 88.2153C309.797 87.9665 307.222 84.8714 307.545 81.7799C307.581 83.0542 307.147 84.2973 306.326 85.2729C305.505 86.2484 304.353 86.8883 303.09 87.0708C301.668 87.2274 300.108 86.7974 298.87 87.5144C297.499 88.3085 297.06 90.2369 295.631 90.9228C294.251 91.5855 292.497 90.6817 291.815 89.3117C291.133 87.9417 291.301 86.2958 291.753 84.8339C292.397 82.7491 293.571 80.8664 295.16 79.369C296.748 77.8716 298.698 76.8104 300.818 76.2886C302.939 75.7669 305.159 75.8023 307.262 76.3916C309.365 76.9808 311.279 78.1037 312.819 79.6511C314.123 80.9615 315.159 82.6315 315.327 84.4717C315.495 86.3118 314.64 88.3084 312.986 89.1351L312.898 88.2153Z" fill="#2F2E41"/>
<path d="M168.733 277.995H16.3998C16.2938 277.995 16.1921 277.953 16.1171 277.878C16.0421 277.803 16 277.702 16 277.596C16 277.49 16.0421 277.388 16.1171 277.313C16.1921 277.238 16.2938 277.196 16.3998 277.196H168.733C168.839 277.196 168.941 277.238 169.016 277.313C169.091 277.388 169.133 277.49 169.133 277.596C169.133 277.702 169.091 277.803 169.016 277.878C168.941 277.953 168.839 277.995 168.733 277.995Z" fill="#CACACA"/>
</g>
<defs>
<clipPath id="clip0_2060_33491">
<rect width="335" height="263" fill="white" transform="translate(16 16)"/>
</clipPath>
</defs>
</svg>
