<svg width="368" height="300" viewBox="0 0 368 300" fill="none" xmlns="http://www.w3.org/2000/svg">
<rect width="368" height="300" rx="16" fill="#1E1E26"/>
<g clip-path="url(#clip0_2060_33294)">
<path d="M293.392 255.65C293.418 255.607 293.446 255.565 293.476 255.525C293.551 255.349 293.645 255.182 293.757 255.028L303.037 242.06L310.684 231.38H323.727L322.805 232.666L321.163 234.961L316.077 242.064L305.177 257.29L315.28 277.559C315.693 278.384 314.988 279.571 313.716 280.204L308.843 282.628C308.359 282.875 307.826 283.008 307.283 283.019C306.597 283.019 306.025 282.765 305.785 282.282L293.226 257.083C293.127 256.851 293.09 256.596 293.119 256.345C293.148 256.094 293.242 255.854 293.392 255.65Z" fill="#8E92FE"/>
<path d="M310.943 254.873L297.804 249.998C297.208 249.776 296.725 249.327 296.46 248.75C296.196 248.173 296.171 247.514 296.391 246.919L300.246 236.559C300.468 235.964 300.917 235.481 301.495 235.217C302.073 234.953 302.732 234.928 303.328 235.148L316.467 240.024C317.063 240.246 317.546 240.694 317.811 241.272C318.076 241.849 318.1 242.507 317.88 243.103L314.026 253.463C313.916 253.758 313.749 254.028 313.535 254.258C313.321 254.489 313.063 254.675 312.777 254.806C312.491 254.937 312.181 255.01 311.867 255.022C311.552 255.033 311.238 254.983 310.943 254.873Z" fill="#2F2E41"/>
<path d="M299.771 249.114C299.682 249.114 299.594 249.098 299.511 249.067C299.328 248.997 299.18 248.858 299.1 248.68C299.019 248.502 299.013 248.3 299.082 248.117L303.906 235.366C303.975 235.183 304.114 235.035 304.292 234.955C304.471 234.875 304.674 234.868 304.857 234.937C305.04 235.006 305.188 235.145 305.268 235.323C305.349 235.501 305.355 235.704 305.286 235.887L300.462 248.638C300.409 248.778 300.314 248.898 300.191 248.984C300.067 249.069 299.921 249.114 299.771 249.114Z" fill="white"/>
<path d="M320.971 281.122V235.068C320.97 235.025 320.973 234.982 320.979 234.94C321.002 234.405 321.18 233.889 321.492 233.455C321.804 233.02 322.237 232.687 322.737 232.495C323.055 232.368 323.395 232.304 323.738 232.305H329.182C329.916 232.306 330.619 232.597 331.138 233.115C331.656 233.633 331.948 234.335 331.949 235.068V281.122C331.948 281.854 331.656 282.557 331.138 283.075C330.619 283.593 329.916 283.884 329.182 283.885H323.738C323.004 283.884 322.301 283.593 321.783 283.075C321.264 282.557 320.972 281.854 320.971 281.122Z" fill="#8E92FE"/>
<path d="M318.017 252.378V241.326C318.018 240.691 318.271 240.083 318.72 239.634C319.17 239.185 319.779 238.932 320.415 238.932H334.431C335.067 238.932 335.676 239.185 336.126 239.634C336.575 240.083 336.828 240.691 336.829 241.326V252.378C336.828 253.013 336.575 253.622 336.126 254.071C335.676 254.52 335.067 254.772 334.431 254.773H320.415C319.779 254.772 319.17 254.52 318.72 254.071C318.271 253.622 318.018 253.013 318.017 252.378Z" fill="#2F2E41"/>
<path d="M328.742 253.606C328.546 253.606 328.359 253.529 328.22 253.39C328.082 253.252 328.004 253.065 328.004 252.87V239.239C328.004 239.043 328.082 238.856 328.22 238.718C328.358 238.58 328.546 238.502 328.742 238.502C328.937 238.502 329.125 238.58 329.263 238.718C329.402 238.856 329.479 239.043 329.479 239.239V252.87C329.479 253.065 329.401 253.252 329.263 253.39C329.125 253.529 328.937 253.606 328.742 253.606Z" fill="white"/>
<path d="M303.536 200.038L263.205 179.271C262.555 178.934 262.064 178.353 261.841 177.655C261.618 176.958 261.681 176.2 262.015 175.549L264.509 170.715C264.847 170.065 265.428 169.575 266.127 169.353C266.825 169.13 267.583 169.193 268.235 169.527L308.567 190.294C308.77 190.398 308.958 190.528 309.127 190.68C309.59 191.086 309.904 191.635 310.018 192.24C310.132 192.844 310.04 193.47 309.756 194.016L307.263 198.85C307.096 199.173 306.868 199.46 306.59 199.694C306.313 199.929 305.991 200.106 305.645 200.216C305.37 200.301 305.085 200.345 304.797 200.346C304.358 200.345 303.926 200.24 303.536 200.038Z" fill="#8E92FE"/>
<path d="M304.32 201.232L284.712 193.5C284.057 193.171 283.56 192.597 283.328 191.902C283.097 191.208 283.15 190.45 283.477 189.795L287.949 180.591C288.279 179.937 288.854 179.441 289.549 179.209C289.899 179.093 290.268 179.049 290.635 179.078C291.003 179.107 291.36 179.208 291.687 179.377L309.394 190.098C309.463 190.132 309.527 190.176 309.583 190.229C310.034 190.634 310.259 191.608 310.439 192.39L310.468 192.511C310.517 192.721 310.56 192.902 310.603 193.029L310.618 193.078C310.633 193.129 310.649 193.183 310.66 193.232C310.819 193.87 310.743 194.543 310.447 195.131L308.005 199.99C307.772 200.448 307.417 200.832 306.979 201.102C306.542 201.371 306.038 201.515 305.524 201.517C305.106 201.518 304.693 201.42 304.32 201.232Z" fill="#2F2E41"/>
<path d="M318.784 176.007C329.686 176.007 338.525 167.18 338.525 156.291C338.525 145.402 329.686 136.574 318.784 136.574C307.881 136.574 299.042 145.402 299.042 156.291C299.042 167.18 307.881 176.007 318.784 176.007Z" fill="#8E92FE"/>
<path d="M319.936 166.914L319.956 166.177C318.584 166.139 317.374 166.053 316.465 165.39C316.207 165.191 315.995 164.939 315.844 164.651C315.692 164.363 315.604 164.046 315.587 163.721C315.571 163.523 315.601 163.324 315.674 163.139C315.748 162.954 315.864 162.788 316.012 162.655C316.615 162.146 317.586 162.311 318.294 162.635L318.905 162.915L317.734 154.371L317.003 154.471L317.999 161.738C317.037 161.456 316.146 161.578 315.536 162.092C315.301 162.297 315.117 162.553 314.998 162.84C314.879 163.127 314.828 163.437 314.849 163.747C314.871 164.184 314.988 164.61 315.192 164.997C315.396 165.383 315.682 165.72 316.03 165.985C317.198 166.837 318.716 166.88 319.936 166.914Z" fill="#2F2E41"/>
<path d="M313.389 155.099H309.416V155.835H313.389V155.099Z" fill="#2F2E41"/>
<path d="M325.93 155.099H321.957V155.835H325.93V155.099Z" fill="#2F2E41"/>
<path d="M300.788 242.238C299.484 242.163 298.467 240.022 298.467 237.338V202.829C298.467 201.148 298.678 199.474 299.096 197.846L299.097 197.846C299.249 197.26 299.429 196.678 299.633 196.117C300.871 192.661 303.045 189.616 305.912 187.32C306.236 187.056 306.575 186.8 306.919 186.56C308.589 185.383 310.432 184.472 312.381 183.858C312.328 183.615 312.3 183.368 312.3 183.119C312.301 182.191 312.67 181.301 313.327 180.645C313.984 179.989 314.875 179.62 315.804 179.619H320.968C321.897 179.62 322.787 179.989 323.444 180.645C324.101 181.301 324.471 182.191 324.472 183.119C324.471 183.367 324.444 183.614 324.39 183.857C328.426 185.133 331.951 187.66 334.452 191.071C336.954 194.482 338.303 198.6 338.304 202.829V237.338C338.304 240.091 337.251 242.248 335.907 242.248H300.865C300.839 242.248 300.813 242.245 300.788 242.238Z" fill="#2F2E41"/>
<path d="M323.599 245.389C323.37 244.987 323.245 244.534 323.236 244.071L322.46 198.76C322.454 198.397 322.519 198.037 322.652 197.699C322.785 197.361 322.984 197.053 323.237 196.792L323.237 196.792C323.489 196.531 323.791 196.322 324.124 196.177C324.457 196.032 324.815 195.954 325.179 195.948L330.623 195.857C331.309 195.845 331.975 196.087 332.491 196.538C333.008 196.989 333.338 197.616 333.418 198.296C333.43 198.387 333.436 198.478 333.436 198.569L334.215 243.884C334.226 244.616 333.945 245.323 333.435 245.849C332.925 246.376 332.227 246.679 331.494 246.693L326.051 246.786C325.555 246.794 325.066 246.668 324.634 246.422C324.203 246.176 323.845 245.819 323.599 245.389Z" fill="#8E92FE"/>
<path d="M321.311 214.272C321.105 213.91 320.983 213.506 320.955 213.09L321.188 192.098C321.131 191.367 321.367 190.644 321.844 190.087C322.32 189.53 322.998 189.185 323.73 189.127L329.157 188.702C329.817 188.652 330.474 188.839 331.01 189.229C331.065 189.271 331.121 189.322 331.175 189.359C331.311 189.471 331.452 189.577 331.599 189.675L331.716 189.759C332.496 190.311 333.381 190.936 333.424 191.545L336.689 212.026C336.737 212.611 336.596 213.196 336.284 213.694C336.211 213.816 336.127 213.932 336.034 214.04C335.953 214.136 335.864 214.225 335.768 214.307C335.318 214.711 334.746 214.955 334.142 215.001L323.928 215.659C323.405 215.699 322.882 215.59 322.418 215.345C321.955 215.099 321.571 214.727 321.311 214.272Z" fill="#2F2E41"/>
<path d="M302.184 237.397C301.988 237.397 301.8 237.319 301.662 237.181C301.524 237.043 301.446 236.856 301.446 236.66V200.925C301.446 200.73 301.524 200.542 301.662 200.404C301.8 200.266 301.988 200.188 302.184 200.188C302.379 200.188 302.567 200.266 302.705 200.404C302.844 200.542 302.921 200.73 302.921 200.925V236.66C302.921 236.856 302.843 237.043 302.705 237.181C302.567 237.319 302.379 237.397 302.184 237.397Z" fill="white"/>
<path d="M336.687 151.608L302.393 139.078C302.211 139.011 302.044 138.909 301.901 138.778C301.759 138.647 301.643 138.49 301.562 138.314C301.48 138.139 301.434 137.949 301.426 137.755C301.417 137.562 301.448 137.369 301.514 137.187L301.63 136.64C304.308 129.327 313.186 124.725 320.507 127.4L331.06 131.256C338.381 133.931 341.563 142.59 338.885 149.902L338.58 150.73C338.445 151.097 338.17 151.396 337.815 151.56C337.461 151.725 337.055 151.742 336.687 151.608Z" fill="#2F2E41"/>
<path d="M338.535 152.303C290.735 154.064 286.558 148.066 301.122 138.633L304.212 132.955L339.623 145.849L338.535 152.303Z" fill="#2F2E41"/>
<path d="M329.162 130.357C329.426 129.48 328.296 128.366 326.637 127.868C324.979 127.37 323.421 127.677 323.157 128.554C322.893 129.431 324.024 130.545 325.682 131.043C327.34 131.541 328.898 131.234 329.162 130.357Z" fill="#2F2E41"/>
<path d="M120.603 16C86.3305 16 58.4517 43.8442 58.4517 78.0747C58.4419 86.8369 60.2996 95.5008 63.9012 103.491C73.6416 125.083 95.3897 140.149 120.603 140.149C137.084 140.14 152.888 133.597 164.541 121.958C176.195 110.319 182.746 94.5351 182.755 78.0747C182.755 43.8442 154.871 16 120.603 16ZM172.025 103.029C167.332 112.662 160.023 120.785 150.931 126.47C141.839 132.156 131.33 135.175 120.603 135.183C96.3742 135.183 75.6155 120.052 67.3071 98.753C64.7321 92.1626 63.415 85.1491 63.4238 78.0747C63.4238 46.5854 89.0751 20.966 120.603 20.966C152.132 20.966 177.783 46.5854 177.783 78.0747C177.794 86.7224 175.824 95.258 172.025 103.029Z" fill="#E6E6E6"/>
<path d="M120.604 140.333C108.831 140.324 97.3009 136.989 87.3451 130.713C77.3893 124.438 69.4135 115.478 64.3389 104.869C64.1363 104.446 64.0484 103.977 64.0838 103.509C64.1193 103.042 64.2769 102.592 64.5409 102.204L64.5742 102.155C64.8379 101.774 65.1973 101.468 65.6165 101.269C66.0358 101.07 66.5 100.985 66.9626 101.022C67.4252 101.059 67.8699 101.217 68.2522 101.48C68.6344 101.743 68.9407 102.101 69.1402 102.52C78.5696 122.25 98.7702 134.999 120.603 134.999C130.581 134.974 140.379 132.343 149.024 127.369C157.67 122.394 164.863 115.249 169.89 106.641C170.124 106.236 170.46 105.901 170.866 105.669C171.272 105.437 171.731 105.316 172.199 105.319C172.661 105.318 173.116 105.44 173.515 105.672C173.915 105.905 174.245 106.24 174.472 106.642L174.501 106.693C174.731 107.099 174.851 107.559 174.848 108.025C174.846 108.492 174.721 108.95 174.487 109.354C168.987 118.759 161.121 126.566 151.67 132C142.218 137.434 131.509 140.307 120.604 140.333Z" fill="#8E92FE"/>
<path d="M106.595 83.7525C108.284 83.7415 109.925 84.3165 111.237 85.3793C112.549 86.4421 113.451 87.9268 113.79 89.58C114.128 91.2331 113.881 92.9522 113.091 94.4438C112.301 95.9354 111.018 97.1069 109.459 97.7585C107.901 98.4101 106.165 98.5013 104.547 98.0165C102.928 97.5318 101.529 96.5011 100.587 95.1005C99.6449 93.6998 99.2189 92.0161 99.3815 90.3366C99.5441 88.6572 100.285 87.0862 101.479 85.8918C102.147 85.215 102.944 84.6774 103.822 84.3102C104.7 83.9429 105.643 83.7534 106.595 83.7525ZM106.595 80.6487C104.546 80.6476 102.543 81.2534 100.838 82.3895C99.1338 83.5256 97.805 85.141 97.0198 87.0314C96.2346 88.9217 96.0283 91.0022 96.427 93.0096C96.8257 95.0171 97.8114 96.8614 99.2596 98.3093C100.708 99.7572 102.553 100.744 104.563 101.144C106.572 101.544 108.656 101.341 110.549 100.558C112.443 99.7763 114.061 98.4508 115.201 96.7498C116.34 95.0488 116.949 93.0485 116.95 91.0019C116.951 88.2575 115.861 85.625 113.919 83.6834C111.977 81.7418 109.343 80.6502 106.595 80.6487ZM128.182 65.8506C129.119 65.8553 130.02 65.488 130.686 64.8295C131.352 64.171 131.728 63.2752 131.733 62.3392C131.733 62.3273 131.733 62.3154 131.733 62.3034C131.738 61.8449 131.652 61.39 131.48 60.9647C131.308 60.5394 131.054 60.152 130.733 59.8247C130.411 59.4974 130.028 59.2365 129.606 59.057C129.183 58.8775 128.73 58.7829 128.271 58.7785C128.248 58.7783 128.226 58.7783 128.204 58.7785C127.265 58.7696 126.361 59.1337 125.691 59.7906C125.021 60.4474 124.639 61.3433 124.63 62.2811C124.621 63.2189 124.986 64.1218 125.643 64.7912C126.301 65.4606 127.198 65.8416 128.137 65.8504C128.152 65.8506 128.167 65.8506 128.182 65.8506ZM135.607 83.7525C137.296 83.7415 138.937 84.3165 140.249 85.3793C141.561 86.4421 142.463 87.9268 142.801 89.58C143.139 91.2331 142.892 92.9522 142.103 94.4438C141.313 95.9354 140.029 97.1069 138.471 97.7585C136.913 98.4101 135.176 98.5013 133.558 98.0165C131.94 97.5318 130.54 96.5011 129.598 95.1005C128.656 93.6998 128.23 92.0161 128.393 90.3366C128.556 88.6572 129.297 87.0862 130.49 85.8918C131.159 85.215 131.956 84.6774 132.834 84.3102C133.712 83.9429 134.655 83.7534 135.607 83.7525ZM135.607 80.6487C133.559 80.6487 131.557 81.2553 129.854 82.3917C128.151 83.5281 126.824 85.1433 126.04 87.0331C125.256 88.9228 125.051 91.0023 125.451 93.0085C125.85 95.0146 126.836 96.8574 128.285 98.3038C129.733 99.7501 131.578 100.735 133.586 101.134C135.595 101.533 137.677 101.328 139.569 100.546C141.461 99.7629 143.079 98.4373 144.216 96.7366C145.354 95.0358 145.962 93.0363 145.962 90.9908C145.962 89.6327 145.694 88.2878 145.173 87.0331C144.653 85.7783 143.89 84.6382 142.929 83.6779C141.967 82.7175 140.826 81.9557 139.569 81.436C138.313 80.9162 136.966 80.6487 135.607 80.6487Z" fill="#E6E6E6"/>
<path d="M133.531 72.9664H128.203L124.929 66.3045C124.665 65.8373 124.296 65.4378 123.851 65.1372C123.406 64.8367 122.897 64.6433 122.365 64.5724C121.832 64.5015 121.291 64.555 120.782 64.7286C120.274 64.9022 119.813 65.1912 119.436 65.5729L111.478 73.2325C110.827 73.8965 110.457 74.7859 110.446 75.7155C110.446 77.6442 111.844 78.3315 112.499 78.7194C117.549 81.6236 119.325 81.9451 119.325 83.3972V90.7021C119.325 91.1724 119.512 91.6236 119.845 91.9562C120.178 92.2888 120.629 92.4756 121.1 92.4756C121.571 92.4756 122.023 92.2888 122.356 91.9562C122.689 91.6236 122.876 91.1724 122.876 90.7021V80.7258C122.876 79.2626 119.502 78.0654 117.516 76.5136L122.943 70.8049C125.018 73.9641 125.973 76.5136 127.16 76.5136H133.531C134.002 76.5143 134.454 76.3282 134.787 75.9961C135.121 75.6641 135.309 75.2133 135.309 74.7429C135.31 74.2725 135.124 73.8211 134.791 73.4879C134.459 73.1548 134.007 72.9672 133.536 72.9665L133.531 72.9664Z" fill="#E6E6E6"/>
<path d="M70.6121 173.623C69.0824 173.623 67.8159 178.071 67.5704 183.904H38.1415C37.896 178.071 36.6295 173.623 35.0997 173.623C33.3943 173.623 32.0117 179.146 32.0117 185.96C32.0117 192.773 33.3943 198.297 35.0997 198.297C36.6295 198.297 37.896 193.848 38.1415 188.016H67.5704C67.8158 193.848 69.0824 198.297 70.6121 198.297C72.3175 198.297 73.7001 192.773 73.7001 185.96C73.7001 179.146 72.3176 173.623 70.6121 173.623Z" fill="#E6E6E6"/>
<path d="M84.9472 167.746C80.5854 159.938 73.5235 153.985 65.0839 151.003C56.6443 148.021 47.4057 148.214 39.0979 151.545C30.7902 154.876 23.983 161.117 19.9509 169.1C15.9189 177.083 14.9385 186.26 17.1934 194.913C19.4482 203.566 24.7837 211.101 32.2007 216.108C39.6177 221.115 48.6077 223.25 57.4873 222.113C66.3669 220.977 74.5273 216.646 80.4404 209.933C86.3535 203.22 89.6139 194.584 89.6111 185.643C89.6091 179.378 88.0036 173.217 84.9472 167.746ZM52.7973 219.467C43.8748 219.421 35.3345 215.843 29.0496 209.517C22.7646 203.192 19.2481 194.635 19.2711 185.723C19.2942 176.812 22.8551 168.273 29.1727 161.98C35.4904 155.687 44.049 152.153 52.9717 152.154C61.8944 152.154 70.4526 155.689 76.7694 161.983C83.0863 168.277 86.646 176.816 86.6679 185.728C86.6898 194.639 83.1721 203.196 76.8864 209.521C70.6006 215.845 62.0599 219.422 53.1373 219.467C53.024 219.467 52.9107 219.467 52.7973 219.467Z" fill="#E6E6E6"/>
<path d="M52.8149 222.596C45.8004 222.599 38.9301 220.607 33.0083 216.852C32.7125 216.663 32.4843 216.386 32.3564 216.06L32.3379 216.012C32.2093 215.689 32.1882 215.333 32.2776 214.997C32.367 214.661 32.5622 214.362 32.8344 214.145C33.0975 213.924 33.4248 213.794 33.7679 213.773C34.111 213.752 34.4518 213.841 34.7399 214.029C41.0343 218.03 48.4813 219.83 55.911 219.145C63.3408 218.461 70.3323 215.33 75.7871 210.246C81.242 205.161 84.8511 198.411 86.0476 191.055C87.244 183.7 85.9599 176.155 82.397 169.608C82.23 169.308 82.1639 168.962 82.2086 168.621C82.2533 168.281 82.4063 167.964 82.6451 167.717C82.881 167.46 83.193 167.286 83.5353 167.221C83.8776 167.155 84.2319 167.201 84.5462 167.351L84.5923 167.373C84.9076 167.52 85.1678 167.764 85.3355 168.069C88.3853 173.694 89.9201 180.014 89.7897 186.409C89.6593 192.805 87.8682 199.057 84.5917 204.553C81.3152 210.05 76.6657 214.602 71.0985 217.765C65.5312 220.928 59.237 222.592 52.8321 222.596H52.8149Z" fill="#8E92FE"/>
<path d="M188.392 148.882C183.557 148.88 178.769 149.829 174.301 151.675C169.833 153.522 165.773 156.229 162.353 159.643C158.933 163.057 156.22 167.11 154.368 171.571C152.517 176.032 151.563 180.814 151.563 185.643C151.562 190.473 152.513 195.255 154.363 199.716C156.213 204.178 158.925 208.233 162.344 211.648C165.763 215.063 169.821 217.771 174.289 219.619C178.756 221.467 183.544 222.418 188.379 222.418H188.392C188.631 222.418 188.865 222.418 189.103 222.408C198.804 222.222 208.038 218.218 214.799 211.268C221.559 204.318 225.299 194.983 225.205 185.293C225.112 175.604 221.192 166.343 214.298 159.524C207.405 152.706 198.095 148.881 188.392 148.882ZM195.895 218.634C191.249 219.688 186.432 219.751 181.759 218.818C177.086 217.885 172.663 215.979 168.779 213.222C164.894 210.466 161.636 206.921 159.217 202.821C156.798 198.721 155.272 194.157 154.739 189.428C154.207 184.699 154.68 179.91 156.127 175.376C157.574 170.841 159.962 166.663 163.137 163.114C166.311 159.564 170.2 156.724 174.548 154.778C178.897 152.832 183.608 151.825 188.373 151.822H188.392C196.722 151.821 204.759 154.886 210.968 160.431C217.177 165.975 221.123 173.611 222.052 181.878C222.98 190.144 220.826 198.463 216.001 205.244C211.175 212.025 204.018 216.792 195.895 218.634Z" fill="#E6E6E6"/>
<path d="M188.392 222.601C179.262 222.601 170.454 219.229 163.662 213.134C156.871 207.038 152.576 198.65 151.604 189.583C150.632 180.515 153.052 171.409 158.397 164.016C163.742 156.623 171.636 151.464 180.559 149.534C180.779 149.487 181.005 149.484 181.226 149.525L181.303 149.54C181.673 149.611 182.007 149.808 182.249 150.098C182.491 150.387 182.625 150.75 182.629 151.127C182.634 151.504 182.508 151.87 182.273 152.165C182.038 152.46 181.709 152.664 181.34 152.745C173.206 154.486 166.004 159.173 161.123 165.901C156.242 172.63 154.026 180.924 154.902 189.187C155.778 197.45 159.685 205.096 165.869 210.654C172.054 216.212 180.078 219.287 188.398 219.288C188.723 219.285 189.039 219.284 189.36 219.274C189.719 219.26 190.071 219.371 190.355 219.59C190.639 219.808 190.837 220.119 190.914 220.469C190.999 220.807 190.961 221.164 190.808 221.476C190.654 221.789 190.395 222.037 190.076 222.178C189.859 222.277 189.642 222.374 189.423 222.47C189.239 222.551 189.04 222.595 188.839 222.599C188.69 222.601 188.542 222.601 188.392 222.601Z" fill="#8E92FE"/>
<path d="M206.554 184.086C205.573 184.037 204.603 184.31 203.792 184.862C202.981 185.415 202.373 186.218 202.062 187.148H198.436L195.789 179.199C195.691 178.901 195.501 178.642 195.247 178.458C194.993 178.274 194.687 178.175 194.373 178.175H194.345C194.026 178.18 193.718 178.288 193.466 178.482C193.214 178.677 193.032 178.948 192.947 179.255L188.799 193.711L183.925 164.473C183.869 164.135 183.697 163.826 183.44 163.599C183.182 163.372 182.854 163.24 182.511 163.226C182.168 163.212 181.83 163.316 181.555 163.521C181.279 163.726 181.083 164.02 180.999 164.352L176.059 187.148H170.523C170.127 187.148 169.748 187.305 169.468 187.585C169.189 187.864 169.032 188.243 169.032 188.638C169.032 189.033 169.189 189.412 169.468 189.691C169.748 189.97 170.127 190.127 170.523 190.127H177.233C177.565 190.128 177.888 190.017 178.15 189.813C178.412 189.609 178.598 189.323 178.678 189.001L182.164 172.041L186.945 200.701C186.999 201.035 187.167 201.34 187.42 201.566C187.673 201.791 187.995 201.923 188.333 201.939H188.417C188.741 201.939 189.056 201.833 189.315 201.639C189.574 201.444 189.763 201.171 189.853 200.86L194.485 184.7L195.948 189.103C196.048 189.4 196.238 189.658 196.492 189.842C196.746 190.026 197.051 190.125 197.364 190.127H202.127C202.412 190.88 202.895 191.543 203.525 192.044C204.156 192.546 204.91 192.868 205.709 192.976C206.508 193.085 207.321 192.976 208.063 192.661C208.805 192.347 209.448 191.837 209.924 191.188C210.4 190.538 210.691 189.772 210.767 188.971C210.844 188.169 210.702 187.362 210.356 186.635C210.011 185.907 209.476 185.286 208.806 184.838C208.137 184.389 207.359 184.129 206.554 184.086Z" fill="#E6E6E6"/>
<path d="M351.631 284H284.13C284.032 284 283.938 283.962 283.869 283.893C283.8 283.823 283.761 283.73 283.761 283.632C283.761 283.534 283.8 283.441 283.869 283.372C283.938 283.302 284.032 283.264 284.13 283.264H351.631C351.729 283.264 351.823 283.302 351.892 283.372C351.961 283.441 352 283.534 352 283.632C352 283.73 351.961 283.823 351.892 283.893C351.823 283.962 351.729 284 351.631 284Z" fill="#3F3D56"/>
</g>
<defs>
<clipPath id="clip0_2060_33294">
<rect width="336" height="268" fill="white" transform="translate(16 16)"/>
</clipPath>
</defs>
</svg>
