<svg width="365" height="336" viewBox="0 0 365 336" fill="none" xmlns="http://www.w3.org/2000/svg">
<rect width="365" height="336" rx="16" fill="#1E1E26"/>
<g clip-path="url(#clip0_2060_33360)">
<path d="M80.3841 78.2721C97.5752 78.2721 111.511 64.332 111.511 47.136C111.511 29.9401 97.5752 16 80.3841 16C63.193 16 49.2568 29.9401 49.2568 47.136C49.2568 64.332 63.193 78.2721 80.3841 78.2721Z" fill="#FF6884"/>
<path d="M177.322 80.5972C176.295 78.8645 171.851 80.7197 171.034 79.1472C170.22 77.5805 174.349 75.1932 176.708 69.7397C177.133 68.7562 179.814 62.5586 177.83 60.6463C174.068 57.0214 156.854 71.9802 150.83 67.085C149.508 66.0107 148.584 63.8661 144.583 60.3841C142.991 58.9989 142.029 58.3735 141.097 58.6062C139.775 58.9363 139.671 60.7059 138.253 64.1851C136.128 69.403 134.87 69.0879 133.632 73.2509C132.713 76.3413 132.923 78.1381 131.841 78.4881C130.31 78.9835 128.901 75.7055 126.96 75.999C124.981 76.2986 123.784 80.1152 123.406 82.9727C122.696 88.3351 124.665 91.8736 125.756 95.5944C126.942 99.6378 127.646 105.787 124.907 114.492L97.8022 190.882C103.786 175.207 121.113 132.238 128.393 116.27C130.495 111.661 132.815 106.985 137.58 105.14C142.168 103.363 148.468 104.424 156.501 102.488C157.439 102.262 160.042 101.6 160.37 100.068C160.641 98.8021 159.109 98.0953 159.345 96.9095C159.66 95.3188 162.671 95.2992 166.371 93.464C168.981 92.1699 170.606 90.6309 172.004 89.3074C172.425 88.9084 178.69 82.9037 177.322 80.5972Z" fill="#F2F2F2"/>
<path d="M70.6836 120.812C69.537 120.816 69.165 123.533 68.1577 123.48C67.1541 123.428 67.1741 120.712 65.1789 117.98C64.8191 117.488 62.5516 114.383 61.0406 114.806C58.1767 115.607 60.5497 128.374 56.4096 129.919C55.501 130.258 54.1822 130.093 51.3193 131.053C50.1803 131.434 49.5957 131.727 49.4411 132.251C49.2217 132.995 50.0597 133.557 51.3579 135.257C53.3049 137.806 52.7875 138.332 54.4728 140.141C55.7239 141.485 56.6661 141.9 56.5257 142.532C56.3271 143.426 54.3121 143.172 53.8963 144.21C53.472 145.268 54.9994 146.957 56.2924 147.967C58.7189 149.863 61.0231 149.917 63.1636 150.455C65.4898 151.039 68.7101 152.468 72.1913 156.324L101.853 191.672C95.8881 184.212 79.8036 163.307 74.0695 155.126C72.4141 152.764 70.7896 150.276 71.2591 147.404C71.711 144.639 74.0493 141.852 75.4171 137.35C75.5769 136.824 76.0029 135.355 75.346 134.752C74.8029 134.254 74.0143 134.802 73.5003 134.344C72.8108 133.73 73.6701 132.246 73.8372 129.9C73.955 128.246 73.6689 127.004 73.4228 125.936C73.3486 125.614 72.2098 120.806 70.6836 120.812Z" fill="#F2F2F2"/>
<path d="M93.5575 125.948L92.8667 119.779L93.1823 119.312C94.6428 117.15 95.3872 115.038 95.3961 113.033C95.3976 112.715 95.3827 112.396 95.3678 112.071C95.3083 110.785 95.2338 109.185 96.0676 107.321C96.535 106.281 97.8481 103.875 99.8223 104.173C100.354 104.247 100.756 104.491 101.061 104.777C101.106 104.706 101.152 104.634 101.201 104.557C101.816 103.619 102.303 103.217 102.772 102.829C103.132 102.532 103.504 102.225 104.088 101.498C104.344 101.179 104.543 100.899 104.711 100.664C105.222 99.9523 105.889 99.1035 107.065 99.1184C108.322 99.1779 108.98 100.217 109.416 100.905C110.195 102.132 110.547 103.017 110.781 103.604C110.866 103.818 110.963 104.059 111.012 104.134C111.417 104.73 114.709 104.173 115.949 103.97C118.734 103.505 121.144 103.103 122.138 104.861C122.849 106.118 122.321 107.779 120.519 109.933C119.958 110.603 119.361 111.112 118.831 111.511C119.27 111.774 119.663 112.176 119.822 112.807C120.198 114.302 118.913 115.8 116.005 117.266C115.283 117.632 114.311 118.121 112.949 118.356C112.307 118.466 111.729 118.493 111.235 118.508C111.225 118.794 111.158 119.103 110.984 119.422C110.473 120.36 109.41 120.807 107.808 120.7C106.045 120.607 104.594 120.271 103.313 119.976C102.195 119.72 101.232 119.502 100.476 119.553C99.0734 119.666 97.9925 120.789 96.7241 122.246L93.5575 125.948Z" fill="#F2F2F2"/>
<path d="M96.7617 89.2217L90.9721 91.4547L90.4398 91.2679C87.9784 90.4033 85.7475 90.2186 83.8069 90.7184C83.4984 90.7978 83.194 90.8931 82.8838 90.9898C81.6547 91.3738 80.1269 91.8515 78.1124 91.5178C76.9887 91.3291 74.3285 90.669 74.1157 88.6834C74.0529 88.1503 74.1871 87.6994 74.3862 87.3315C74.3058 87.3065 74.2249 87.28 74.1376 87.2521C73.0744 86.8951 72.5621 86.5261 72.0687 86.1705C71.6893 85.8974 71.2982 85.6151 70.4474 85.2348C70.0743 85.0679 69.753 84.9459 69.4827 84.8428C68.6649 84.5292 67.6748 84.0992 67.3909 82.9574C67.1298 81.7265 67.9681 80.8262 68.5228 80.2296C69.5119 79.165 70.2778 78.5992 70.7859 78.2242C70.9717 78.0877 71.1805 77.9329 71.2401 77.8664C71.7134 77.3236 70.3398 74.2799 69.8294 73.1313C68.6736 70.554 67.6734 68.3239 69.1208 66.9173C70.1558 65.91 71.8969 65.9998 74.4363 67.1966C75.2267 67.5697 75.8706 68.0181 76.391 68.4297C76.5331 67.9383 76.8222 67.456 77.3924 67.1417C78.7431 66.3995 80.5177 67.2626 82.6723 69.7042C83.2097 70.3099 83.9286 71.1267 84.5017 72.385C84.771 72.9779 84.9434 73.53 85.0832 74.0045C85.3624 73.9421 85.6789 73.9283 86.0312 74.016C87.068 74.2721 87.7697 75.1873 88.0723 76.7645C88.4301 78.4935 88.4729 79.9833 88.5125 81.2969C88.5484 82.4437 88.5825 83.4309 88.8233 84.1498C89.2885 85.478 90.6484 86.239 92.3786 87.0968L96.7617 89.2217Z" fill="#F2F2F2"/>
<path d="M93.5575 71.0502L92.8667 64.882L93.1823 64.4144C94.6428 62.2521 95.3872 60.1404 95.3961 58.1359C95.3976 57.8172 95.3827 57.4985 95.3678 57.1739C95.3083 55.8873 95.2338 54.2879 96.0676 52.4234C96.535 51.384 97.8481 48.9774 99.8223 49.2752C100.354 49.3497 100.756 49.5939 101.061 49.8798C101.106 49.8084 101.152 49.7369 101.201 49.6594C101.816 48.7212 102.303 48.3192 102.772 47.932C103.132 47.6341 103.504 47.3274 104.088 46.6006C104.344 46.282 104.543 46.002 104.711 45.7667C105.222 45.0549 105.889 44.206 107.065 44.2209C108.322 44.2805 108.98 45.3199 109.416 46.0079C110.195 47.235 110.547 48.1196 110.781 48.7063C110.866 48.9208 110.963 49.162 111.012 49.2365C111.417 49.8322 114.709 49.2752 115.949 49.0727C118.734 48.608 121.144 48.206 122.138 49.9632C122.849 51.2201 122.321 52.882 120.519 55.0354C119.958 55.7056 119.361 56.2148 118.831 56.614C119.27 56.8761 119.663 57.2781 119.822 57.9096C120.198 59.4047 118.913 60.9029 116.005 62.3682C115.283 62.7346 114.311 63.2231 112.949 63.4583C112.307 63.5685 111.729 63.5954 111.235 63.6103C111.225 63.8962 111.158 64.2059 110.984 64.5246C110.473 65.4628 109.41 65.9095 107.808 65.8023C106.045 65.71 104.594 65.3734 103.313 65.0786C102.195 64.8224 101.232 64.605 100.476 64.6556C99.0734 64.7688 97.9925 65.8917 96.7241 67.3481L93.5575 71.0502Z" fill="#F2F2F2"/>
<path d="M99.8667 190.782L98.5744 189.972L97.0678 190.144C97.0439 190.004 96.962 189.683 96.8385 189.179C96.1641 186.421 94.1081 178.028 92.393 164.81C91.196 155.583 90.5186 146.097 90.3787 136.611C90.2387 127.11 90.6884 119.917 91.0487 114.136C91.3211 109.775 91.6516 105.624 91.9762 101.579C92.8396 90.7733 93.654 80.5664 93.0481 69.2664C92.9141 66.7437 92.6327 61.4928 89.5658 55.9053C87.7867 52.6649 85.3362 49.7878 82.2812 47.3574L84.1809 44.9688C87.553 47.6552 90.264 50.8421 92.2397 54.44C95.64 60.6351 95.9467 66.3566 96.0941 69.1056C96.7105 80.6052 95.8872 90.9104 95.0147 101.82C94.6932 105.85 94.3627 109.984 94.0917 114.326C93.7344 120.054 93.2893 127.184 93.4277 136.563C93.5647 145.936 94.2346 155.306 95.4152 164.417C97.1095 177.468 99.1357 185.736 99.8012 188.453C100.156 189.903 100.23 190.207 99.8667 190.782Z" fill="#F2F2F2"/>
<path d="M76.6894 52.2031C76.5643 52.2031 76.4378 52.2001 76.3097 52.1912C73.7133 52.0512 71.3089 50.4965 69.1621 47.5717C68.1557 46.1957 67.6406 44.6261 66.6133 41.4958C66.454 41.0133 65.6799 38.565 65.2094 35.1965C64.9012 32.9954 64.9399 32.0751 65.3762 31.262C65.86 30.3566 66.6431 29.7252 67.5245 29.2993C67.4858 29.0074 67.517 28.7066 67.6436 28.3998C68.1632 27.128 69.5447 27.2948 70.2921 27.3752C70.6703 27.4229 71.1422 27.4854 71.6514 27.4586C72.4523 27.4199 72.8826 27.1816 73.5347 26.8242C74.1585 26.4817 74.9341 26.0558 76.0849 25.8205C78.3538 25.3469 80.255 25.9903 80.8818 26.2017C84.1794 27.3007 85.8051 29.8651 87.6869 32.8346C88.0621 33.4302 89.3499 35.5985 90.2 38.5709C90.8133 40.7154 90.727 41.6685 90.5424 42.3773C90.1672 43.8338 89.2814 44.6677 87.0319 46.5084C84.6826 48.4354 83.5035 49.4004 82.4911 49.9871C80.1344 51.3482 78.6545 52.2031 76.6894 52.2031Z" fill="#F2F2F2"/>
<path d="M115.459 84.3477L115.429 84.8445L114.469 100.701L136.831 103.052L130.58 82.5078L115.459 84.3477Z" fill="#A0616A"/>
<path d="M183.255 83.2515C183.277 83.2553 183.31 83.2608 183.349 83.2674C184.125 83.3959 188.817 84.12 193.548 82.3175C195.552 81.5539 194.868 81.3636 199.331 78.7089C204.564 75.5966 205.906 75.6183 206.296 74.1671C207.074 71.2692 202.92 66.7137 200.17 67.0137C199.446 67.0926 198.67 67.5244 197.464 67.2316C197.199 67.1673 196.04 66.8858 195.474 65.9254C194.97 65.0688 195.397 64.4508 195.194 63.7482C194.662 61.9039 190.223 60.9836 186.332 61.6338C184.094 62.0079 182.353 63.029 178.962 65.0559C173.062 68.5839 170.111 70.3479 169.448 73.0505C168.819 75.6121 170.328 76.7159 169.231 79.458C168.209 82.0113 166.587 81.8407 166.028 83.9062C165.13 87.2299 168.465 90.8777 169.854 92.3973C171.377 94.0633 172.834 94.9777 174.767 96.1916C177.194 97.7152 178.408 98.477 179.867 98.3995C182.512 98.259 190.373 98.7374 190.476 96.5476C190.514 95.727 200.048 96.3989 195.354 87.5638C194.778 86.4801 183.498 87.6377 183.349 87.0151" fill="#2F2E41"/>
<path d="M173.967 87.3595L173.937 87.8563L172.978 103.713L195.34 106.064L189.088 85.5195L173.967 87.3595Z" fill="#FFB6B6"/>
<path d="M349 191.297C349 191.497 348.838 191.659 348.639 191.659H16V190.936H348.639C348.838 190.936 349 191.097 349 191.297Z" fill="#E6E6E6"/>
<path d="M238.063 168.393C241.65 172.257 246.551 173.537 249.009 171.253C251.467 168.97 250.551 163.986 246.962 160.122C245.55 158.558 243.784 157.356 241.811 156.615L226.405 140.435L218.969 147.828L234.946 162.994C235.539 165.017 236.608 166.868 238.063 168.393Z" fill="#FFB6B6"/>
<path d="M205.742 157.301C210.73 159.004 215.653 157.81 216.737 154.634C217.82 151.458 214.654 147.504 209.663 145.8C207.679 145.092 205.554 144.87 203.466 145.152L182.236 138.2L179.188 148.235L200.44 154.023C201.92 155.523 203.738 156.647 205.742 157.301Z" fill="#A0616A"/>
<path d="M135.296 96.5059C135.296 96.5059 122.136 112.342 129.749 118.895C137.362 125.447 171.361 149.703 171.361 149.703L184.615 151.767L188.005 138.952L158.076 116.768L135.296 96.5059Z" fill="#8E92FE"/>
<path d="M185.402 92.9804C193.633 92.9804 200.305 86.306 200.305 78.0727C200.305 69.8394 193.633 63.165 185.402 63.165C177.171 63.165 170.498 69.8394 170.498 78.0727C170.498 86.306 177.171 92.9804 185.402 92.9804Z" fill="#FFB6B6"/>
<path d="M180.601 79.0377C180.623 79.0414 180.655 79.0469 180.695 79.0535C181.471 79.182 186.163 79.9061 190.893 78.1036C192.897 77.3401 192.214 77.1497 196.677 74.4951C201.909 71.3827 203.252 71.4045 203.642 69.9532C204.42 67.0554 200.265 62.4999 197.515 62.7998C196.791 62.8788 196.016 63.3105 194.81 63.0178C194.545 62.9535 193.385 62.6719 192.82 61.7116C192.316 60.8549 192.743 60.2369 192.54 59.5343C192.007 57.6901 187.569 56.7697 183.677 57.42C181.439 57.794 179.698 58.8151 176.308 60.8421C170.407 64.3701 167.457 66.134 166.794 68.8367C166.165 71.3983 167.674 72.5021 166.577 75.2442C165.555 77.7974 163.932 77.6269 163.374 79.6923C162.476 83.0161 165.81 86.6639 167.2 88.1834C168.723 89.8495 170.179 90.7638 172.113 91.9777C174.54 93.5014 175.754 94.2632 177.213 94.1857C179.858 94.0452 182.489 91.6471 182.592 89.4574C182.63 88.6367 182.288 88.3906 181.441 85.5695C181.088 84.3941 180.843 83.4238 180.695 82.8013" fill="#2F2E41"/>
<path d="M275.566 213.022L291.053 232.387L299.227 220.338L287.182 209.149L275.566 213.022Z" fill="#FFB6B6"/>
<path d="M211.895 166.116C211.895 166.116 259.509 171.711 263.451 175.583C267.392 179.456 291.054 212.162 291.054 212.162L281.159 219.908L255.646 192.777L201.26 192.352L211.895 166.116Z" fill="#2F2E41"/>
<path d="M237.708 166.116L253.195 185.481L261.369 173.432L249.323 162.243L237.708 166.116Z" fill="#FFB6B6"/>
<path d="M251.044 179.887C251.044 179.887 247.603 179.026 247.603 182.038C247.603 185.051 248.463 194.088 248.463 194.088C248.463 194.088 288.042 187.202 288.042 182.899C288.042 178.596 277.287 179.456 277.287 179.456L261.799 172.141L251.044 179.887Z" fill="#2F2E41"/>
<path d="M170.165 265.092L177.478 292.203L189.094 290.052L186.513 262.08L170.165 265.092Z" fill="#A0616A"/>
<path d="M179.199 290.481L174.897 291.342L171.455 302.961C171.455 302.961 177.048 305.113 177.048 309.416C177.048 313.719 179.199 316.732 187.803 316.301C196.407 315.871 197.268 316.301 197.268 312.859C197.268 309.416 190.815 291.342 190.815 291.342C190.815 291.342 191.245 284.026 186.082 284.457C180.92 284.887 179.199 290.481 179.199 290.481Z" fill="#2F2E41"/>
<path d="M130.836 264.67L131.335 292.746L143.125 293.486L147.426 265.727L130.836 264.67Z" fill="#A0616A"/>
<path d="M133.423 291.495L129.041 291.283L122.876 301.715C122.876 301.715 127.778 305.163 126.731 309.337C125.684 313.511 127.038 316.957 135.488 318.634C143.938 320.31 144.668 320.937 145.506 317.598C146.343 314.259 144.48 295.157 144.48 295.157C144.48 295.157 146.677 288.166 141.565 287.327C136.453 286.488 133.423 291.495 133.423 291.495Z" fill="#2F2E41"/>
<path d="M135.748 96.8327L112.516 95.1113L107.354 101.566C107.354 101.566 104.773 145.03 106.493 149.333C108.214 153.636 106.924 178.165 106.924 178.165L165.488 174.077L152.526 142.878L152.956 124.804L141.34 102.857L135.748 96.8327Z" fill="#8E92FE"/>
<path d="M109.505 169.128C109.505 169.128 100.04 182.899 103.482 190.214C106.924 197.53 130.269 240.007 130.269 240.007L127.257 279.597L147.908 277.876L151.349 235.273L137.038 200.542L139.62 196.669L161.13 222.919L168.874 268.534L189.524 265.952L178.339 199.251L165.266 173.543L109.505 169.128Z" fill="#2F2E41"/>
<path d="M191.245 95.5416L174.036 93.8203L159.839 107.591C159.839 107.591 152.956 127.386 154.247 138.144C155.537 148.903 166.723 175.583 166.723 175.583L184.361 162.673L204.581 163.534V123.247L194.256 100.706L191.245 95.5416Z" fill="#E6E6E6"/>
<path d="M187.905 100.701C187.905 100.701 197.801 101.986 202.082 109.351C206.363 116.717 237.225 151.375 237.225 151.375L231.378 156.727L200.969 137.101L189.293 117.014L187.905 100.701Z" fill="#E6E6E6"/>
<path d="M165.217 171.064C165.217 171.064 163.711 188.923 173.176 191.505C182.641 194.087 207.163 191.935 207.163 191.935L222.65 151.914L237.708 169.988L252.335 163.103C252.335 163.103 236.847 119.64 228.243 119.64C219.639 119.64 205.872 131.689 205.872 131.689L183.501 161.812L165.217 171.064Z" fill="#2F2E41"/>
<path d="M288.903 226.793C288.903 226.793 285.461 225.932 285.461 228.945C285.461 231.957 286.321 240.994 286.321 240.994C286.321 240.994 325.901 234.108 325.901 229.805C325.901 225.502 315.145 226.363 315.145 226.363L299.658 219.047L288.903 226.793Z" fill="#2F2E41"/>
<path d="M107.483 70.4788C111.888 70.4788 115.459 66.9069 115.459 62.5006C115.459 58.0944 111.888 54.5225 107.483 54.5225C103.078 54.5225 99.5068 58.0944 99.5068 62.5006C99.5068 66.9069 103.078 70.4788 107.483 70.4788Z" fill="#2F2E41"/>
<path d="M125.902 92.0782C135.495 92.0782 143.272 84.2994 143.272 74.7037C143.272 65.108 135.495 57.3291 125.902 57.3291C116.309 57.3291 108.532 65.108 108.532 74.7037C108.532 84.2994 116.309 92.0782 125.902 92.0782Z" fill="#A0616A"/>
<path d="M120.395 93.7518C118.549 94.73 113.354 91.1386 111.496 86.3263C110.3 83.2305 107.393 83.7455 105.538 79.8846C104.457 77.635 107.685 75.4343 107.152 73.4892C106.188 69.9648 107.397 66.8117 107.551 66.4254C108.881 63.0909 110.842 63.1685 112.423 59.2872C113.375 56.9506 112.764 56.6769 113.564 55.4815C115.873 52.0316 122.573 51.9003 127.298 53.5318C128.933 54.0964 132.872 51.0712 136.069 53.2628C139.836 55.8448 142.342 63.2876 141.765 64.6515C141.415 65.4801 139.464 64.6359 135.409 65.2736C131.653 65.8639 136.61 68.6703 132.383 69.627C127.386 70.7583 125.881 69.7259 124.496 71.3073C123.032 72.979 122.761 76.3626 124.097 78.3711C124.76 79.3678 125.615 79.7195 125.508 80.4131C125.312 81.6795 124.188 80.9911 123.819 82.3346C123.39 83.8972 126.949 85.9461 126.64 86.4187C126.578 86.5139 126.311 86.617 122.835 85.2771C121.447 84.742 120.912 84.2801 120.757 84.451C120.505 84.7277 119.257 87.5023 120.675 88.6825C122.881 90.5191 121.352 91.2484 122.358 92.6865C123.396 94.1702 121.568 93.1301 120.395 93.7518Z" fill="#2F2E41"/>
<path d="M124.462 194.139C127.234 198.624 131.795 200.829 134.648 199.064C137.501 197.299 137.567 192.233 134.793 187.746C133.71 185.939 132.209 184.417 130.417 183.309L118.432 164.453L109.706 170.268L122.448 188.239C122.638 190.338 123.329 192.361 124.462 194.139Z" fill="#A0616A"/>
<path d="M108.644 102.427C108.644 102.427 88.4246 106.3 90.1454 116.197C91.8663 126.095 102.728 166.429 102.728 166.429L111.656 176.444L122.411 168.698L113.377 132.55L108.644 102.427Z" fill="#8E92FE"/>
<path d="M205.204 195.74C207.964 200.233 212.519 202.449 215.377 200.691C218.235 198.934 218.313 193.868 215.551 189.374C214.472 187.564 212.976 186.039 211.187 184.925L199.25 166.039L190.509 171.831L203.205 189.835C203.39 191.935 204.075 193.96 205.204 195.74Z" fill="#FFB6B6"/>
<path d="M178.343 105.01L161.315 109.281C161.315 109.281 167.278 130.533 168.675 138.151C170.072 145.77 199.476 187.745 199.476 187.745L208.369 177.104L182.326 129.094L178.343 105.01Z" fill="#E6E6E6"/>
</g>
<defs>
<clipPath id="clip0_2060_33360">
<rect width="333" height="304" fill="white" transform="translate(16 16)"/>
</clipPath>
</defs>
</svg>
