<svg width="365" height="286" viewBox="0 0 365 286" fill="none" xmlns="http://www.w3.org/2000/svg">
<rect width="365" height="286" rx="16" fill="#1E1E26"/>
<g clip-path="url(#clip0_2060_33437)">
<path d="M16 246.225C16 246.504 16.2238 246.728 16.5025 246.728H348.498C348.776 246.728 349 246.504 349 246.225C349 245.946 348.776 245.722 348.498 245.722H16.5025C16.2238 245.722 16 245.946 16 246.225Z" fill="#3F3D56"/>
<path d="M198.428 103.89L201.857 82.452L178.731 73.0205L175.307 105.602L198.428 103.89Z" fill="#A0616A"/>
<path d="M192.585 89.3431C205.609 89.3431 216.166 78.7723 216.166 65.7326C216.166 52.6929 205.609 42.1221 192.585 42.1221C179.561 42.1221 169.003 52.6929 169.003 65.7326C169.003 78.7723 179.561 89.3431 192.585 89.3431Z" fill="#A0616A"/>
<path d="M190.706 33.9917C191.39 34.3891 192.302 33.7888 192.521 33.0278C192.741 32.2669 192.483 31.4594 192.234 30.7112C191.812 29.4556 191.386 28.1958 190.963 26.9403C190.06 24.2643 189.101 21.4953 187.151 19.4576C184.199 16.3842 179.513 15.6021 175.294 16.1686C169.877 16.8957 164.528 19.8339 162.011 24.6912C159.49 29.5486 160.563 36.3295 165.119 39.3606C158.629 46.8052 156.366 55.108 156.725 64.9834C157.084 74.8588 167.829 83.9479 174.843 90.9063C176.409 89.9551 177.832 85.5036 176.971 83.8845C176.109 82.2654 177.342 80.3926 176.278 78.9045C175.214 77.4164 174.319 79.788 175.4 78.3042C176.08 77.3699 173.424 75.2181 174.437 74.6601C179.327 71.9545 180.952 65.85 184.026 61.1787C187.729 55.5434 194.071 51.726 200.78 51.0919C204.475 50.741 208.38 51.3751 211.408 53.5227C214.435 55.6702 216.399 59.5088 215.698 63.1613C217.517 61.3097 218.421 58.5999 218.079 56.0296C217.737 53.4593 216.158 51.075 213.916 49.7687C215.275 45.2622 214.11 40.0793 210.952 36.5916C207.794 33.1039 194.975 33.7 190.364 34.6174" fill="#2F2E41"/>
<path d="M189.988 51.2236C183.878 51.8831 179.466 57.1844 175.742 62.0756C173.597 64.8953 171.347 68.011 171.401 71.5578C171.456 75.1427 173.85 78.2161 174.995 81.615C176.865 87.1699 175.041 93.7733 170.591 97.578C174.99 98.4151 179.745 95.1134 180.505 90.6957C181.387 85.555 177.494 80.592 177.955 75.3922C178.36 70.8138 181.966 67.2881 185.027 63.8638C188.088 60.4396 190.968 55.895 189.557 51.5196" fill="#2F2E41"/>
<path d="M191.158 267.464C191.158 267.464 140.068 272.537 136.268 266.618C132.468 260.7 188.114 254.781 188.114 254.781L191.158 267.464Z" fill="#A0616A"/>
<path d="M158.583 172.624L157.527 178.234C160.403 182.483 160.677 186.972 159.005 191.648L217.273 192.07C216.648 185.75 215.96 178.978 218.358 172.768L158.583 172.624Z" fill="#A0616A"/>
<path d="M254.023 214.337L232.891 197.41C230.083 195.161 228.263 191.817 227.904 188.236L224.649 155.993L244.05 149.517L248.729 181.443L260.386 207.97L254.028 214.337H254.023Z" fill="#A0616A"/>
<path d="M173.149 101.814L201.439 100.546L231.417 114.843L219.173 173.259L157.105 177.909L148.66 113.228L173.149 101.814Z" fill="#8E92FE"/>
<path d="M218.358 186.719C222.61 192.329 224.391 205.835 226.198 219.27C226.198 219.27 147.664 218.848 147.241 218.848C146.819 218.848 159.245 190.523 159.245 190.523L218.358 186.719Z" fill="#2F2E41"/>
<path d="M220.925 215.685L226.203 219.27C226.203 219.27 300.937 214.197 294.604 237.871C288.271 261.545 268.426 265.349 268.426 265.349L188.202 270L187.358 256.894C187.358 256.894 110.09 274.227 102.912 238.716C95.7337 203.205 147.246 218.847 147.246 218.847L220.925 215.685Z" fill="#2F2E41"/>
<path d="M189.389 243.79C189.389 243.79 191.158 234.489 203.825 238.294C216.492 242.099 223.67 247.172 223.67 247.172L193.269 254.781L189.389 243.79Z" fill="#A0616A"/>
<path d="M221.073 113.862C221.073 113.862 235.429 108.789 240.918 125.276C246.407 141.764 245.14 155.292 245.14 155.292L224.028 162.056L221.073 113.862Z" fill="#8E92FE"/>
<path d="M122.63 216.911L118.023 208.786L127.975 183.983L132.654 152.053L152.055 158.529L148.758 191.165C148.42 194.501 146.727 197.612 144.113 199.705L122.63 216.915V216.911Z" fill="#A0616A"/>
<path d="M155.627 113.862C155.627 113.862 141.271 108.789 135.782 125.276C130.293 141.764 131.56 155.292 131.56 155.292L152.671 162.056L155.627 113.862Z" fill="#8E92FE"/>
<path d="M260.129 218.07C265.726 218.07 270.263 211.351 270.263 203.062C270.263 194.774 265.726 188.055 260.129 188.055C254.533 188.055 249.996 194.774 249.996 203.062C249.996 211.351 254.533 218.07 260.129 218.07Z" fill="#A0616A"/>
<path d="M117.838 220.606C123.434 220.606 127.971 213.887 127.971 205.598C127.971 197.31 123.434 190.591 117.838 190.591C112.241 190.591 107.704 197.31 107.704 205.598C107.704 213.887 112.241 220.606 117.838 220.606Z" fill="#A0616A"/>
<path d="M156.535 230.685L193.269 241.253L200.447 253.936L186.72 256.895" fill="#2F2E41"/>
</g>
<defs>
<clipPath id="clip0_2060_33437">
<rect width="333" height="254" fill="white" transform="translate(16 16)"/>
</clipPath>
</defs>
</svg>
